<?xml version="1.0" encoding="utf-8"?>
<!-- Generator: Adobe Illustrator 25.0.0, SVG Export Plug-In . SVG Version: 6.00 Build 0)  -->
<svg version="1.1" id="Layer_1" xmlns="http://www.w3.org/2000/svg" xmlns:xlink="http://www.w3.org/1999/xlink" x="0px" y="0px"
	 viewBox="0 0 470.9 26.1" style="enable-background:new 0 0 470.9 26.1;" xml:space="preserve">
<style type="text/css">
	.st0{fill:#211E1F;}
	.st1{fill:none;}
	.st2{font-family:'ACaslonPro-Bold';}
	.st3{font-size:30px;}
</style>
<g>
	<g>
		<g>
			<g>
				<path class="st0" d="M16.9,55.3"/>
			</g>
		</g>
		<g>
			<g>
				<path class="st0" d="M146.7,55.3"/>
			</g>
		</g>
	</g>
	<g>
		<g>
			<rect x="186.9" y="18.2" class="st0" width="47.4" height="1.6"/>
		</g>
	</g>
	<g>
		<path class="st0" d="M257.2,15.5c-1.1-1.2-2.2-1.8-3.5-1.8c-2.4,0-4,1.8-4,4.4c0,2.4,1.6,4.2,4,4.2c1.3,0,2.4-0.6,3.5-1.8V25
			c-1.3,0.6-2.6,1-3.9,1c-1.6,0-3-0.4-4.2-1.2c-2.3-1.5-3.5-3.9-3.5-6.8c0-2.3,0.7-4.2,2.3-5.8c1.4-1.5,3.3-2.2,5.5-2.2
			c1.3,0,2.6,0.3,3.9,1v4.5H257.2z"/>
		<path class="st0" d="M265.7,10.4v6.4c0,2.1,0,3.6,0.4,4.6c0.3,0.7,1.1,1.2,2.3,1.2s2-0.4,2.3-1.2c0.4-1,0.4-2.5,0.4-4.6v-6.4h4.1
			v6.5c0,3.3,0.1,5.6-1.3,7.3c-1,1.2-2.9,1.9-5.5,1.9s-4.4-0.6-5.5-1.9c-1.5-1.7-1.3-4-1.3-7.3v-6.5H265.7z"/>
		<path class="st0" d="M280.5,10.4h4.2v11.7h5.2v3.6h-9.3V10.4H280.5z"/>
		<path class="st0" d="M295.3,14h-3.4v-3.6h11V14h-3.4v11.6h-4.2V14z"/>
		<path class="st0" d="M311.1,10.4v6.4c0,2.1,0,3.6,0.4,4.6c0.3,0.7,1.1,1.2,2.3,1.2s2-0.4,2.3-1.2c0.4-1,0.4-2.5,0.4-4.6v-6.4h4.1
			v6.5c0,3.3,0.1,5.6-1.3,7.3c-1,1.2-2.9,1.9-5.5,1.9s-4.4-0.6-5.5-1.9c-1.5-1.7-1.3-4-1.3-7.3v-6.5H311.1z"/>
		<path class="st0" d="M325.8,10.4h4.3c2.3,0,3.9,0,5.3,1c1.1,0.8,1.7,2.2,1.7,3.7c0,2.4-1.2,3.9-3.4,4.3l4.2,6.1h-4.7l-3.5-6v6
			h-3.9V10.4z M330.5,17.6c1.7,0,2.6-0.6,2.6-1.9c0-1.6-0.7-2.1-2.5-2.1h-0.8v4H330.5z"/>
		<path class="st0" d="M341.6,10.4h9.3v3.3h-5.3v2.6h5v3.3h-5v2.6h5.3v3.4h-9.3V10.4z"/>
		<path class="st0" d="M378.2,25.6l-0.9-6.6c-0.1-0.9-0.2-2.1-0.3-3.4c-0.2,1.2-0.5,2.1-0.7,2.9l-2.1,7.1h-2.8l-2.1-7.1
			c-0.2-0.7-0.5-1.7-0.7-2.9c-0.1,1.3-0.2,2.5-0.3,3.4l-0.9,6.6h-3.9l2.3-15.2h4.1l2.3,7.9c0.1,0.5,0.4,1.2,0.5,2.1
			c0.1-0.6,0.2-1.3,0.5-2.1l2.3-7.8h4.1l2.3,15.2h-3.7V25.6z"/>
		<path class="st0" d="M389.9,10.4h5.2l5.3,15.2h-4.1l-0.8-2.7h-5.9l-0.8,2.7h-4.1L389.9,10.4z M394.6,19.9l-1.6-5
			c-0.1-0.3-0.3-1-0.5-2c-0.3,1.1-0.4,1.7-0.5,2l-1.5,5H394.6z"/>
		<path class="st0" d="M404,10.4h4l5.8,7.8c0.2,0.3,0.7,1.1,1.4,2.7c-0.1-1.2-0.2-2.2-0.2-3v-7.5h4v15.2h-4l-5.8-7.9
			c-0.2-0.3-0.7-1.1-1.4-2.7c0.1,1.2,0.2,2.2,0.2,3v7.5h-4V10.4z"/>
		<path class="st0" d="M428.3,10.4v6.4c0,2.1,0,3.6,0.4,4.6c0.3,0.7,1.1,1.2,2.3,1.2s2-0.4,2.3-1.2c0.4-1,0.4-2.5,0.4-4.6v-6.4h4.1
			v6.5c0,3.3,0.1,5.6-1.3,7.3c-1,1.2-2.9,1.9-5.5,1.9s-4.4-0.6-5.5-1.9c-1.5-1.7-1.3-4-1.3-7.3v-6.5H428.3z"/>
		<path class="st0" d="M446.1,10.4h5.2l5.3,15.2h-4.1l-0.8-2.7h-5.9l-0.8,2.7h-4.2L446.1,10.4z M450.8,19.9l-1.6-5
			c-0.1-0.3-0.3-1-0.5-2c-0.3,1.1-0.4,1.7-0.5,2l-1.5,5H450.8z"/>
		<path class="st0" d="M460.1,10.4h4.2v11.7h5.2v3.6h-9.3V10.4H460.1z"/>
	</g>
</g>
<rect x="1.4" y="3.8" class="st1" width="219" height="23.6"/>
<text transform="matrix(1 0 0 1 1.4065 25.9345)" class="st0 st2 st3">Nick Chinsen</text>
</svg>
